<?xml version="1.0" encoding="utf-8"?>
<!-- Generator: Adobe Illustrator 25.3.1, SVG Export Plug-In . SVG Version: 6.00 Build 0)  -->
<svg version="1.1" id="Salt__x2B__Steel_Icon" xmlns="http://www.w3.org/2000/svg" xmlns:xlink="http://www.w3.org/1999/xlink"
	 x="0px" y="0px" viewBox="0 0 792 612" style="enable-background:new 0 0 792 612;" xml:space="preserve">
<g>
	<path d="M456.9,238.4v79.3L396,378.4l-60.9-60.7v-79.3H456.9 M467.9,227.4H324.1v94.9l71.9,71.6l71.9-71.6V227.4L467.9,227.4z"/>
	<g>
		<polygon points="381.2,280.8 376.7,280.8 358,280.8 358,259.6 381.2,259.6 381.2,275.8 393.2,275.8 393.2,247.6 346,247.6 
			346,292.8 358,292.8 360.6,292.8 381.2,292.8 381.2,329 358,305.7 358,297.8 346,297.8 346,310.7 393.2,358 393.2,280.8 		"/>
		<polygon points="410.8,280.8 415.3,280.8 434,280.8 434,259.6 410.8,259.6 410.8,275.8 398.8,275.8 398.8,247.6 446,247.6 
			446,292.8 434,292.8 431.4,292.8 410.8,292.8 410.8,329 434,305.7 434,297.8 446,297.8 446,310.7 398.8,358 398.8,280.8 		"/>
	</g>
</g>
</svg>
