<?xml version="1.0" encoding="utf-8"?>
<!-- Generator: Adobe Illustrator 25.3.1, SVG Export Plug-In . SVG Version: 6.00 Build 0)  -->
<svg version="1.1" xmlns="http://www.w3.org/2000/svg" xmlns:xlink="http://www.w3.org/1999/xlink" x="0px" y="0px"
	 viewBox="0 0 792 612" style="enable-background:new 0 0 792 612;" xml:space="preserve">
<g id="Salt__x2B__Steel_Text">
	<g>
		<g>
			<path d="M148.9,483.7h9.7c2.1,0,3.9,1.7,3.9,3.9v9.7c0,2.1-1.7,3.9-3.9,3.9H153v7.7h-4.1V483.7z M158.3,496.2v-7.6
				c0-0.4-0.3-0.8-0.8-0.8H153v9.2h4.5C158,497,158.3,496.6,158.3,496.2z"/>
			<path d="M184.8,487.6V505c0,2.1-1.7,3.9-3.9,3.9h-5.8c-2.1,0-3.9-1.7-3.9-3.9v-17.4c0-2.1,1.7-3.9,3.9-3.9h5.8
				C183.1,483.7,184.8,485.4,184.8,487.6z M180.7,488.6c0-0.4-0.3-0.8-0.8-0.8h-3.8c-0.4,0-0.8,0.3-0.8,0.8v15.4
				c0,0.4,0.3,0.8,0.8,0.8h3.8c0.4,0,0.8-0.3,0.8-0.8V488.6z"/>
			<path d="M221.8,483.7l-5.2,25.1h-5.9l-3.1-14.9l-3.1,14.9h-5.9l-5.2-25.1h4.2l4,19.6l3.9-19.6h4.2l3.9,19.6l3.9-19.6H221.8z"/>
			<path d="M234.5,488.6v5.6h8.7v4.1h-8.7v5.6c0,0.4,0.3,0.8,0.8,0.8h7.9v4.1h-8.9c-2.1,0-3.9-1.7-3.9-3.9v-17.4
				c0-2.1,1.7-3.9,3.9-3.9h8.9v4.1h-7.9C234.8,487.8,234.5,488.1,234.5,488.6z"/>
			<path d="M261.5,508.8v-8.6c0-1.1-0.9-1.9-1.9-1.9h-3.4v10.5H252v-25.1h4.1h5.5c2.1,0,3.9,1.7,3.9,3.9v4.8c0,2.1-1.7,3.9-3.9,3.9
				c2.1,0,3.9,1.7,3.9,3.9v8.7H261.5z M256.2,494.2h3.4c1.1,0,1.9-0.9,1.9-1.9v-3.7c0-0.4-0.3-0.8-0.8-0.8h-4.5V494.2z"/>
			<path d="M299.8,487.6v21.3h-4.1v-10.5h-5.3v10.5h-4.1v-21.3c0-2.1,1.7-3.9,3.9-3.9h5.8C298,483.7,299.8,485.4,299.8,487.6z
				 M295.6,488.6c0-0.4-0.3-0.8-0.8-0.8h-3.8c-0.4,0-0.8,0.3-0.8,0.8v5.6h5.3V488.6z"/>
			<path d="M321.8,483.7v25.1h-4.1v0l-5.3-13.7v13.7h-4.1v-25.1h4.1h0v0l5.3,13.7v-13.8H321.8z"/>
			<path d="M343.9,487.6V505c0,2.1-1.7,3.9-3.9,3.9h-9.7v-25.1h9.7C342.2,483.7,343.9,485.4,343.9,487.6z M339.8,488.6
				c0-0.4-0.3-0.8-0.8-0.8h-4.5v16.9h4.5c0.4,0,0.8-0.3,0.8-0.8V488.6z"/>
			<path d="M378.1,487.6V505c0,2.1-1.7,3.9-3.9,3.9h-5.8c-2.1,0-3.9-1.7-3.9-3.9v-17.4c0-2.1,1.7-3.9,3.9-3.9h5.8
				C376.4,483.7,378.1,485.4,378.1,487.6z M374,488.6c0-0.4-0.3-0.8-0.8-0.8h-3.8c-0.4,0-0.8,0.3-0.8,0.8v15.4
				c0,0.4,0.3,0.8,0.8,0.8h3.8c0.4,0,0.8-0.3,0.8-0.8V488.6z"/>
			<path d="M398.6,504.7v4.1h-7.7c-2.1,0-3.9-1.7-3.9-3.9v-21.3h4.1v20.3c0,0.4,0.3,0.8,0.8,0.8H398.6z"/>
			<path d="M416.3,483.7v13.5c0,2.1-1.7,3.9-3.9,3.9h-0.8v7.7h-4.1v-7.7h-0.8c-2.1,0-3.9-1.7-3.9-3.9v-13.5h4.1v12.5
				c0,0.4,0.3,0.8,0.8,0.8h3.8c0.4,0,0.8-0.3,0.8-0.8v-12.5H416.3z"/>
			<path d="M443.2,483.7v25.1h-4.1v-13.7l-2.9,7.4h-4.4l-2.9-7.4v13.7h-4.1v-25.1h1.7h2.4h0v0l5.1,13.1l5.1-13.1v0h2.5H443.2z"/>
			<path d="M451.8,483.7h9.7c2.1,0,3.9,1.7,3.9,3.9v9.7c0,2.1-1.7,3.9-3.9,3.9h-5.5v7.7h-4.1V483.7z M461.3,496.2v-7.6
				c0-0.4-0.3-0.8-0.8-0.8h-4.5v9.2h4.5C460.9,497,461.3,496.6,461.3,496.2z"/>
			<path d="M478,508.8h-4.1v-25.1h4.1V508.8z"/>
			<path d="M498.7,483.7v4.1h-7.3c-0.4,0-0.8,0.3-0.8,0.8v15.4c0,0.4,0.3,0.8,0.8,0.8h7.3v4.1h-8.3c-2.1,0-3.9-1.7-3.9-3.9v-17.4
				c0-2.1,1.7-3.9,3.9-3.9H498.7z"/>
			<path d="M531,504.7v4.1h-7.7c-2.1,0-3.9-1.7-3.9-3.9v-21.3h4.1v20.3c0,0.4,0.3,0.8,0.8,0.8H531z"/>
			<path d="M543.9,508.8h-4.1v-25.1h4.1V508.8z"/>
			<path d="M556.3,494.2h8.6v4.1h-8.6v10.5h-4.1v-21.3c0-2.1,1.7-3.9,3.9-3.9h8.8v4.1H557c-0.4,0-0.8,0.3-0.8,0.8V494.2z"/>
			<path d="M586.6,487.8h-4.7v21h-4.1v-21h-4.7v-4.1h13.5V487.8z"/>
			<path d="M599.3,508.8h-4.1v-25.1h4.1V508.8z"/>
			<path d="M621,483.7v25.1h-4.1v0l-5.3-13.7v13.7h-4.1v-25.1h4.1h0v0l5.3,13.7v-13.8H621z"/>
			<path d="M643.1,493.4v15.5h-9.7c-2.1,0-3.9-1.7-3.9-3.9v-17.4c0-2.1,1.7-3.9,3.9-3.9h9.7v4.1h-8.7c-0.4,0-0.8,0.3-0.8,0.8v15.4
				c0,0.4,0.3,0.8,0.8,0.8h4.6v-11.3H643.1z"/>
		</g>
		<g>
			<path d="M152.3,423.8c-2.1-2.1-3.1-5.6-3.1-10.4v-12.6c0-4.4,1-7.7,3.1-9.8c2.1-2.1,6.2-3.1,12.4-3.1h12.9
				c6.2,0,10.3,1.1,12.4,3.1c2.1,2.1,3.1,5.4,3.1,9.8v12.3h-16v-8.6c0-1.3-0.7-2-2-2h-7.6c-1.3,0-1.9,0.7-1.9,2v7.3
				c0,1.7,3.6,4.4,10.9,8.2c7.2,3.7,11.9,6.6,14,8.7c2.1,2.1,3.1,5.6,3.1,10.4v12.1c0,4.4-1,7.7-3.1,9.8c-2.1,2.1-6.2,3.1-12.4,3.1
				h-13.9c-6.2,0-10.3-1.1-12.4-3.1c-2.1-2.1-3.1-5.4-3.1-9.8v-12.3h16.5v8.6c0,1.3,0.7,2,2,2h7.6c1.3,0,1.9-0.7,1.9-2v-7.3
				c0-1.3-3.5-3.9-10.6-7.6C159,428.8,154.4,425.9,152.3,423.8z"/>
			<path d="M214.2,387.8h27.1l13.8,76.4h-17l-2.5-14.4h-15.7l-2.5,14.4h-17L214.2,387.8z M227.7,400.8l-5.3,34.3H233L227.7,400.8z"
				/>
			<path d="M262.2,387.8h17v61.7h19.3v14.7h-36.3V387.8z"/>
			<path d="M321.4,402.5v61.7h-17v-61.7h-14v-14.7h45v14.7H321.4z"/>
			<path d="M361.8,417.5v-18.4h17v18.4h18.4v17h-18.4V453h-17v-18.5h-18.5v-17H361.8z"/>
			<path d="M414.7,423.8c-2.1-2.1-3.1-5.6-3.1-10.4v-12.6c0-4.4,1-7.7,3.1-9.8c2.1-2.1,6.2-3.1,12.4-3.1H440
				c6.2,0,10.3,1.1,12.4,3.1c2.1,2.1,3.1,5.4,3.1,9.8v12.3h-16v-8.6c0-1.3-0.7-2-2-2H430c-1.3,0-1.9,0.7-1.9,2v7.3
				c0,1.7,3.6,4.4,10.9,8.2c7.2,3.7,11.9,6.6,14,8.7c2.1,2.1,3.1,5.6,3.1,10.4v12.1c0,4.4-1,7.7-3.1,9.8c-2.1,2.1-6.2,3.1-12.4,3.1
				h-13.9c-6.2,0-10.3-1.1-12.4-3.1c-2.1-2.1-3.1-5.4-3.1-9.8v-12.3h16.5v8.6c0,1.3,0.7,2,2,2h7.6c1.3,0,1.9-0.7,1.9-2v-7.3
				c0-1.3-3.5-3.9-10.6-7.6C421.4,428.8,416.8,425.9,414.7,423.8z"/>
			<path d="M493.1,402.5v61.7h-17v-61.7h-14v-14.7h45v14.7H493.1z"/>
			<path d="M551.2,387.8v14.7h-21.2v16.1h18.2v14.7h-18.2v16.2h21.2v14.7H513v-14.7h0.1v-61.7H551.2z"/>
			<path d="M597.6,387.8v14.7h-21.2v16.1h18.2v14.7h-18.2v16.2h21.2v14.7h-38.3v-14.7h0.1v-61.7H597.6z"/>
			<path d="M607.1,387.8h17v61.7h19.3v14.7h-36.3V387.8z"/>
		</g>
	</g>
</g>
<g id="Salt__x2B__Steel_Icon">
	<g>
		<path d="M494.7,107.8v128.5L396,334.6l-98.7-98.3V107.8H494.7 M512.6,90H279.4v153.7l116.6,116l116.6-116V90L512.6,90z"/>
		<g>
			<polygon points="372,176.5 364.7,176.5 334.4,176.5 334.4,142.1 372,142.1 372,168.4 391.4,168.4 391.4,122.7 314.9,122.7 
				314.9,195.9 334.4,195.9 338.7,195.9 372,195.9 372,254.6 334.4,216.9 334.4,204 314.9,204 314.9,224.9 391.4,301.6 391.4,176.5 
							"/>
			<polygon points="420,176.5 427.3,176.5 457.6,176.5 457.6,142.1 420,142.1 420,168.4 400.6,168.4 400.6,122.7 477.1,122.7 
				477.1,195.9 457.6,195.9 453.3,195.9 420,195.9 420,254.6 457.6,216.9 457.6,204 477.1,204 477.1,224.9 400.6,301.6 400.6,176.5 
							"/>
		</g>
	</g>
</g>
</svg>
