<?xml version="1.0" encoding="utf-8"?>
<!-- Generator: Adobe Illustrator 25.3.1, SVG Export Plug-In . SVG Version: 6.00 Build 0)  -->
<svg version="1.1" id="Salt__x2B__Steel_Text" xmlns="http://www.w3.org/2000/svg" xmlns:xlink="http://www.w3.org/1999/xlink"
	 x="0px" y="0px" viewBox="0 0 792 612" style="enable-background:new 0 0 792 612;" xml:space="preserve">
<g>
	<g>
		<path d="M148.9,341.3h9.7c2.1,0,3.9,1.7,3.9,3.9v9.7c0,2.1-1.7,3.9-3.9,3.9H153v7.7h-4.1V341.3z M158.3,353.9v-7.6
			c0-0.4-0.3-0.8-0.8-0.8H153v9.2h4.5C158,354.7,158.3,354.3,158.3,353.9z"/>
		<path d="M184.8,345.2v17.4c0,2.1-1.7,3.9-3.9,3.9h-5.8c-2.1,0-3.9-1.7-3.9-3.9v-17.4c0-2.1,1.7-3.9,3.9-3.9h5.8
			C183.1,341.3,184.8,343.1,184.8,345.2z M180.7,346.2c0-0.4-0.3-0.8-0.8-0.8h-3.8c-0.4,0-0.8,0.3-0.8,0.8v15.4
			c0,0.4,0.3,0.8,0.8,0.8h3.8c0.4,0,0.8-0.3,0.8-0.8V346.2z"/>
		<path d="M221.8,341.3l-5.2,25.1h-5.9l-3.1-14.9l-3.1,14.9h-5.9l-5.2-25.1h4.2l4,19.6l3.9-19.6h4.2l3.9,19.6l3.9-19.6H221.8z"/>
		<path d="M234.5,346.2v5.6h8.7v4.1h-8.7v5.6c0,0.4,0.3,0.8,0.8,0.8h7.9v4.1h-8.9c-2.1,0-3.9-1.7-3.9-3.9v-17.4
			c0-2.1,1.7-3.9,3.9-3.9h8.9v4.1h-7.9C234.8,345.5,234.5,345.8,234.5,346.2z"/>
		<path d="M261.5,366.5v-8.6c0-1.1-0.9-1.9-1.9-1.9h-3.4v10.5H252v-25.1h4.1h5.5c2.1,0,3.9,1.7,3.9,3.9v4.8c0,2.1-1.7,3.9-3.9,3.9
			c2.1,0,3.9,1.7,3.9,3.9v8.7H261.5z M256.2,351.9h3.4c1.1,0,1.9-0.9,1.9-1.9v-3.7c0-0.4-0.3-0.8-0.8-0.8h-4.5V351.9z"/>
		<path d="M299.8,345.2v21.3h-4.1V356h-5.3v10.5h-4.1v-21.3c0-2.1,1.7-3.9,3.9-3.9h5.8C298,341.3,299.8,343.1,299.8,345.2z
			 M295.6,346.2c0-0.4-0.3-0.8-0.8-0.8h-3.8c-0.4,0-0.8,0.3-0.8,0.8v5.6h5.3V346.2z"/>
		<path d="M321.8,341.3v25.1h-4.1v0l-5.3-13.7v13.7h-4.1v-25.1h4.1h0v0l5.3,13.7v-13.8H321.8z"/>
		<path d="M343.9,345.2v17.4c0,2.1-1.7,3.9-3.9,3.9h-9.7v-25.1h9.7C342.2,341.3,343.9,343.1,343.9,345.2z M339.8,346.2
			c0-0.4-0.3-0.8-0.8-0.8h-4.5v16.9h4.5c0.4,0,0.8-0.3,0.8-0.8V346.2z"/>
		<path d="M378.1,345.2v17.4c0,2.1-1.7,3.9-3.9,3.9h-5.8c-2.1,0-3.9-1.7-3.9-3.9v-17.4c0-2.1,1.7-3.9,3.9-3.9h5.8
			C376.4,341.3,378.1,343.1,378.1,345.2z M374,346.2c0-0.4-0.3-0.8-0.8-0.8h-3.8c-0.4,0-0.8,0.3-0.8,0.8v15.4c0,0.4,0.3,0.8,0.8,0.8
			h3.8c0.4,0,0.8-0.3,0.8-0.8V346.2z"/>
		<path d="M398.6,362.4v4.1h-7.7c-2.1,0-3.9-1.7-3.9-3.9v-21.3h4.1v20.3c0,0.4,0.3,0.8,0.8,0.8H398.6z"/>
		<path d="M416.3,341.3v13.5c0,2.1-1.7,3.9-3.9,3.9h-0.8v7.7h-4.1v-7.7h-0.8c-2.1,0-3.9-1.7-3.9-3.9v-13.5h4.1v12.5
			c0,0.4,0.3,0.8,0.8,0.8h3.8c0.4,0,0.8-0.3,0.8-0.8v-12.5H416.3z"/>
		<path d="M443.2,341.3v25.1h-4.1v-13.7l-2.9,7.4h-4.4l-2.9-7.4v13.7h-4.1v-25.1h1.7h2.4h0v0l5.1,13.1l5.1-13.1v0h2.5H443.2z"/>
		<path d="M451.8,341.3h9.7c2.1,0,3.9,1.7,3.9,3.9v9.7c0,2.1-1.7,3.9-3.9,3.9h-5.5v7.7h-4.1V341.3z M461.3,353.9v-7.6
			c0-0.4-0.3-0.8-0.8-0.8h-4.5v9.2h4.5C460.9,354.7,461.3,354.3,461.3,353.9z"/>
		<path d="M478,366.5h-4.1v-25.1h4.1V366.5z"/>
		<path d="M498.7,341.3v4.1h-7.3c-0.4,0-0.8,0.3-0.8,0.8v15.4c0,0.4,0.3,0.8,0.8,0.8h7.3v4.1h-8.3c-2.1,0-3.9-1.7-3.9-3.9v-17.4
			c0-2.1,1.7-3.9,3.9-3.9H498.7z"/>
		<path d="M531,362.4v4.1h-7.7c-2.1,0-3.9-1.7-3.9-3.9v-21.3h4.1v20.3c0,0.4,0.3,0.8,0.8,0.8H531z"/>
		<path d="M543.9,366.5h-4.1v-25.1h4.1V366.5z"/>
		<path d="M556.3,351.9h8.6v4.1h-8.6v10.5h-4.1v-21.3c0-2.1,1.7-3.9,3.9-3.9h8.8v4.1H557c-0.4,0-0.8,0.3-0.8,0.8V351.9z"/>
		<path d="M586.6,345.5h-4.7v21h-4.1v-21h-4.7v-4.1h13.5V345.5z"/>
		<path d="M599.3,366.5h-4.1v-25.1h4.1V366.5z"/>
		<path d="M621,341.3v25.1h-4.1v0l-5.3-13.7v13.7h-4.1v-25.1h4.1h0v0l5.3,13.7v-13.8H621z"/>
		<path d="M643.1,351v15.5h-9.7c-2.1,0-3.9-1.7-3.9-3.9v-17.4c0-2.1,1.7-3.9,3.9-3.9h9.7v4.1h-8.7c-0.4,0-0.8,0.3-0.8,0.8v15.4
			c0,0.4,0.3,0.8,0.8,0.8h4.6V351H643.1z"/>
	</g>
	<g>
		<path d="M152.3,281.5c-2.1-2.1-3.1-5.6-3.1-10.4v-12.6c0-4.4,1-7.7,3.1-9.8c2.1-2.1,6.2-3.1,12.4-3.1h12.9
			c6.2,0,10.3,1.1,12.4,3.1c2.1,2.1,3.1,5.4,3.1,9.8v12.3h-16v-8.6c0-1.3-0.7-2-2-2h-7.6c-1.3,0-1.9,0.7-1.9,2v7.3
			c0,1.7,3.6,4.4,10.9,8.2c7.2,3.7,11.9,6.6,14,8.7c2.1,2.1,3.1,5.6,3.1,10.4v12.1c0,4.4-1,7.7-3.1,9.8c-2.1,2.1-6.2,3.1-12.4,3.1
			h-13.9c-6.2,0-10.3-1.1-12.4-3.1c-2.1-2.1-3.1-5.4-3.1-9.8v-12.3h16.5v8.6c0,1.3,0.7,2,2,2h7.6c1.3,0,1.9-0.7,1.9-2v-7.3
			c0-1.3-3.5-3.9-10.6-7.6C159,286.5,154.4,283.6,152.3,281.5z"/>
		<path d="M214.2,245.5h27.1l13.8,76.4h-17l-2.5-14.4h-15.7l-2.5,14.4h-17L214.2,245.5z M227.7,258.5l-5.3,34.3H233L227.7,258.5z"/>
		<path d="M262.2,245.5h17v61.7h19.3v14.7h-36.3V245.5z"/>
		<path d="M321.4,260.2v61.7h-17v-61.7h-14v-14.7h45v14.7H321.4z"/>
		<path d="M361.8,275.2v-18.4h17v18.4h18.4v17h-18.4v18.5h-17v-18.5h-18.5v-17H361.8z"/>
		<path d="M414.7,281.5c-2.1-2.1-3.1-5.6-3.1-10.4v-12.6c0-4.4,1-7.7,3.1-9.8c2.1-2.1,6.2-3.1,12.4-3.1H440c6.2,0,10.3,1.1,12.4,3.1
			c2.1,2.1,3.1,5.4,3.1,9.8v12.3h-16v-8.6c0-1.3-0.7-2-2-2H430c-1.3,0-1.9,0.7-1.9,2v7.3c0,1.7,3.6,4.4,10.9,8.2
			c7.2,3.7,11.9,6.6,14,8.7c2.1,2.1,3.1,5.6,3.1,10.4v12.1c0,4.4-1,7.7-3.1,9.8c-2.1,2.1-6.2,3.1-12.4,3.1h-13.9
			c-6.2,0-10.3-1.1-12.4-3.1c-2.1-2.1-3.1-5.4-3.1-9.8v-12.3h16.5v8.6c0,1.3,0.7,2,2,2h7.6c1.3,0,1.9-0.7,1.9-2v-7.3
			c0-1.3-3.5-3.9-10.6-7.6C421.4,286.5,416.8,283.6,414.7,281.5z"/>
		<path d="M493.1,260.2v61.7h-17v-61.7h-14v-14.7h45v14.7H493.1z"/>
		<path d="M551.2,245.5v14.7h-21.2v16.1h18.2V291h-18.2v16.2h21.2v14.7H513v-14.7h0.1v-61.7H551.2z"/>
		<path d="M597.6,245.5v14.7h-21.2v16.1h18.2V291h-18.2v16.2h21.2v14.7h-38.3v-14.7h0.1v-61.7H597.6z"/>
		<path d="M607.1,245.5h17v61.7h19.3v14.7h-36.3V245.5z"/>
	</g>
</g>
</svg>
